[b] Rambo IV(2008) (TAMIL - ENG) HQ DVDRip 700MB Team MJY MovieJockeY.CoM[/b]

[b]Rambo IV(2008)[/b]

[b]**Dual Audio (TAMIL - ENG)**[/b]

[b]HQ DVDRip 700MB[/b]

[b][ Team MJY ][/b]

[img]http://flowtv.org/wp-content/uploads/2008/07/rambo_2.png[/img]

Movie Title: Rambo (2008)

Runtime: 92 min

Genre: Action | Thriller | War

Released Date: 25 January 2008 (USA)

IMDB Ratting: 7.2/10

IMDB Ratting: http://www.imdb.com/title/tt0462499/

In Thailand, John Rambo joins a group of mercenaries to venture into war-torn Burma, and rescue a group of Christian aid workers who were kidnapped by the ruthless local infantry unit. 

Director: Sylvester Stallone

Writers: Art Monterastelli, Sylvester Stallone, and 1 more credit

Stars: Sylvester Stallone, Julie Benz and Matthew Marsden

General:

Format : MPEG-4
Format profile : Base Media / Version 2
Codec ID : mp42
File size : 699 MiB
Duration : 1h 27mn
Overall bit rate : 1 121 Kbps

Video:

Format : AVC
Format/Info : Advanced Video Codec
Format settings, ReFrames : 16 frames
Codec ID : avc1
Codec ID/Info : Advanced Video Coding
Duration : 1h 27mn
Bit rate mode : Variable
Bit rate : 796 Kbps
Width : 652 pixels
Height : 356 pixels
Display aspect ratio : 16:9
Frame rate mode : Variable
Frame rate : 25.000 fps
Minimum frame rate : 12.500 fps
Maximum frame rate : 25.000 fps
Stream size : 496 MiB (71%)
Writing library : x264 core 79

Audio:

Format : AAC
Format/Info : Advanced Audio Codec
Format profile : LC
Codec ID : 40
Duration : 1h 27mn
Bit rate mode : Variable
Bit rate : 160 Kbps
Maximum bit rate : 224 Kbps
Channel(s) : 2 channels
Channel positions : Front: L R
Sampling rate : 48.0 KHz
Stream size : 99.7 MiB (14%)

[IMG]http://www.shotpix.com/images/76329016014437764201.png[/IMG][/CENTER]
[IMG]http://img153.imageshack.us/img153/9309/vlcsnap2011091009h59m18.png[/IMG]
[IMG]http://img339.imageshack.us/img339/3629/vlcsnap2011091010h00m38.png[/IMG]
[IMG]http://img16.imageshack.us/img16/7102/vlcsnap2011091010h01m14.png[/IMG]
[IMG]http://img11.imageshack.us/img11/2246/vlcsnap2011091010h02m06.png[/IMG]
[IMG]http://img30.imageshack.us/img30/1439/vlcsnap2011091009h59m05.png[/IMG]

Credits: Siva

